<?xml version="1.0" encoding="utf-8"?>

<!DOCTYPE svg PUBLIC "-//W3C//DTD SVG 1.1//EN" "http://www.w3.org/Graphics/SVG/1.1/DTD/svg11.dtd">
<svg version="1.1" id="Layer_1" xmlns="http://www.w3.org/2000/svg" xmlns:xlink="http://www.w3.org/1999/xlink" x="0px" y="0px"
	 viewBox="0 0 1252.61 1686.269" enable-background="new 0 0 1252.61 1686.269" xml:space="preserve">
<g>
	<path fill="#171717" d="M640.158,54.053c16.93-10.131,45.61-16.203,58.727-4.604c7.943,6.781,13.129,16.058,18.155,25.061
		c35.623-15.515,68.235-3.267,80.917,20.389c7.077,11.739,6.2,25.905,7.567,39.045c1.63,17.448,4.547,34.965,2.883,52.539
		c-1.476,18.061-15.455,74.817-38.863,120.133c-7.449,12.458-1.773,20.774-22.155,42.92c-9.892,11.203-17.369,24.264-26.748,35.877
		c-4.456,5.904-11.818,9.015-15.249,15.784c4.228,3.157,8.81,6.006,12.388,9.949c1.823,4.365-3.453,5.607-6.61,4.502
		c-1.219,4.034-1.949,8.251-1.39,12.479c6.576-0.444,12.867-2.747,19.431-3.248c1.892-0.148,3.282,1.322,4.798,2.211
		c-0.297,8.027-9.649,9.427-19.819,19.01c11.38,3.223,3.246-0.499,25.825,3.168c0.319,0.376,0.957,1.117,1.276,1.493
		c-5.539,0.353-11.055,1.003-16.594,1.242c16.571,14.935,20.393,12.305,17.084,19.602c1.607,1.744,3.909,3.111,4.536,5.573
		c0.483,5.727-8.593,4.927-16.913,5.117c16.501,9.121,16.172,5.981,25.05,17.654c2.04,2.975,4.536,5.892,4.992,9.619
		c-7.793-2.133-6.392-4.792-25.039-9.585c9.997,22.44,8.974,16.87,29.415,36.014c1.379,1.174,1.174,4-0.707,4.616
		c-4.627,1.356-9.493,2.017-14.292,1.607c3.722,10.711-3.401,11.374-15.557,11.283c7.115,5.365,10.25,24.865,9.505,33.233
		c-3.795,0.536-6.986-1.561-10.177-3.202c1.949,3.032,4.581,6.12,4.57,9.927c-1.094,5.288-7.169,6.177-11.374,7.932
		c0.809,7.458,1.807,6.401-7.02,16.833c16.341,3.502,14.564,2.927,12.229,9.277c2.165,3.419,7.374,5.71,7.294,10.029l-2.154,0.912
		c7.351,3.977,15.693,5.06,23.933,4.958c1.972,2.211,0.182,4.354-1.368,6.154c32.276,0,45.21-3.163,53.223,11.454
		c0.365,3.453-4.171,2.849-6.428,2.906c16.902,5.321,34.818,1.855,47.912,13.858c1.561,2.131-1.573,3.499-3.237,2.576
		c-2.712-0.524-5.471-0.855-8.217-0.843c24.319,8.691,45.475,0.494,63.229,25.198c37.938,4.583,40.829,27.707,69.429,42.202
		c1.869,1.037,3.841,2.12,4.889,4.126c-4.08,0.558-8.103-0.456-12.149-0.684c10.234,4.889,21.335,8.525,30.236,15.83
		c7.704,6.325,15.021,13.277,23.842,18.087c1.983,1.368,4.866,2.222,5.505,4.866c-2.314,0.08-4.616,0.194-6.895,0.308
		c1.014-0.729,2.051-1.413,3.111-2.086l-1.664,0.353c-0.296-0.388-0.889-1.174-1.185-1.573c-8.844-0.262-15.135-7.077-21.449-12.354
		c-18.484-17.036-47.689-20.582-53.04-28.891c2.799-3.415,2.633-2.727,15.807-0.068c-14.694-10.89-29.88-29.698-44.356-32.834
		c-7.408-2.177-15.192-2.188-22.714-3.59c-0.251-0.57-0.752-1.698-0.992-2.268c0.946-3.089,4.411-2.051,6.827-2.245
		c-3.772-4.462-9.943-12.7-32.253-15.579c-4.714-0.417-33.389-4.958-36.356-8.593c-0.937-3.792,6.275-3.196,12.856-3.408
		c-10.186-7.478-43.594-3.879-46.544-14.599c1.618-3.864,6.485-1.106,9.585-1.242c-3.761-3.476-8.001-7.419-13.437-7.431
		c-21.949-0.438-38.827,0.566-43.182-0.57c-1.003-3.248,3.955-3.579,5.527-5.698c-12.808-0.683-6.699,0.463-22.577-8.194
		c1.618,3.385,3.738,6.507,5.356,9.892c-3.487-4.285-8.297-8.228-9.847-13.631c0.741-0.319,2.234-0.957,2.975-1.276
		c-6.279-6.324-4.579-5.482-3.203-10.189c-3.807-1.447-7.659-2.724-11.511-3.977c-1.823,2.086-3.567,4.251-5.71,6.006
		c1.926-6.462,6.416-11.921,8.32-18.44c0.182-3.248-1.482-7.169,1.413-9.664c2.849-2.177,6.508-2.838,9.733-4.308
		c-1.721-3.932-4.661-7.169-6.325-11.1c-1.447-2.872,2.257-6.268,5.015-4.525c4.194,2.234,7.055,6.382,11.454,8.331
		c-1.436-8.32-4.604-16.275-8.468-23.739c-2.348-4.73-8.32-4.536-12.377-6.906c-2.348-1.276-2.291-5.311,0.433-6.017
		c7.499-1.903,15.386-0.513,22.942-2.154c-0.855-2.724-1.926-5.391-2.348-8.206c1.142-7.09,6.911-0.725,14.611-2.416
		c-6.599-7.453-13.391-14.747-19.807-22.349c0.057-0.524,0.171-1.573,0.239-2.097c-3.031-3.75-6.268-7.431-8.365-11.784
		c-1.664-2.712,1.276-5.653,3.977-5.767c3.977-0.251,7.67,1.607,11.568,2.12c-6.918-4.24-14.747-6.849-21.392-11.522
		c-2.758-1.573-3.077-5.995,0.171-7.191c4.935-1.55,10.257-0.912,15.374-1.265c-3.681-2.963-8.821-4.342-11.499-8.354
		c-0.809-3.795,3.67-4.331,6.325-3.693c-3.909-3.886-7.818-7.795-11.146-12.206c-29.111-2.202-4.955-14.975,1.835-20.617
		c-9.098,1.357-21.387,7.324-19.842-8.992c0.558-4.73,1.174-10.542,5.881-13.038c-1.823-1.858-3.556-3.807-5.254-5.767
		c-1.504,3.693-2.325,7.602-2.975,11.522c-2.268-0.9-0.946-3.579-1.162-5.322c0.724-12.868,2.412-14.992,11.214-21.187
		c6.804-4.536,10.873-11.83,15.659-18.235c22.686-31.76,28.711-32.882,36.002-51.958c-5.619,8.73-10.44,18.098-17.562,25.768
		c-11.761,14.346-32.773,26.501-49.53,62.135c-3.579,6.109,3.522,12.582,0.319,18.839c-3.658,7.02-10.018,12.092-14.964,18.155
		c6.656,1.653,14.018,3.054,18.565,8.741c-2.268,0.376-4.479,0.08-6.405-1.14l1.732-1.219c-4.445-2.473-9.208-4.251-13.972-5.972
		c-3.146,2.302-5.653,5.448-7.818,8.662c-3.569,13.301,13.073,2.555-23.625,36.458c-0.98,0.9-2.063,1.653-3.259,2.234
		c2.238-4.833,16.172-18.435,21.357-28.287c0.764-4.582-2.2-9.835,0.957-14.029c6.371-8.719,14.964-15.568,21.266-24.355
		c2.53-2.975,0.194-6.792-0.467-10.006c-2.165-6.849,2.393-13.186,5.482-18.93c27.268-44.526,39.16-41.919,54.613-66.341
		c20.356-32.09,38.288-72.384,44.105-110.731c4.446-36,1.433-108.525-13.688-123.039c-18.03-19.189-89.493-18.187-126.048,58.408
		c-0.444,0.878-1.105,1.539-1.983,1.983c1.308-4.731,10.651-27.486,21.745-39.296c44.75-50.01,98.783-42.736,114.081-20.753
		c11.486,15.246,16.185,79.435,12.092,120.384c10.25-41.742,1.827-66.541,0.445-99.311c-1.546-28.622-28.131-47.476-52.049-45.712
		c-42.749,0.282-74.333,37.801-87.436,50.795c-5.858,6.063-11.898,11.989-17.118,18.611l-1.162-1.413
		c0.034,0.729,0.114,2.2,0.148,2.94c4.847-4.714,3.541-3.852,6.268-6.052l0.171-0.513c3.932-3.385,7.396-7.305,11.488-10.531
		c-12.969,16.322-28.218,25.223-39.467,60.414c-4.452,14.94-1.546,27.851-5.482,66.295c-2.427-0.9-2.313-3.818-2.963-5.881
		c-0.912-1.675,0.228-3.225,0.935-4.638c0.091,1.504,0.273,4.513,0.365,6.006c2.296-4.934-0.937-11.001,1.299-49.416
		c0.923-12.947,6.451-24.868,11.944-36.424c-15.527,21.159-34.765,55.163-41.484,80.997c-6.724,25.472-16.571,50.146-20.799,76.233
		c-3.51,18.109-4.448,13.031-11.556,19.671c-1.276,7.602,1.732,15.067,2.918,22.497c-4.16-6.895-7.795-14.337-9.585-22.224
		c-76.72,3.591-157.049,21.525-168.011,24.64c0.524,6.724,0,13.46-1.06,20.104c5.413-1.482,10.109,2.257,13.836,5.676
		c0.9-4.764,3.886-9.026,8.046-11.488c7.344-0.958-5.15,9.448,5.539,9.448c2.12-0.251,3.727,1.094,5.265,2.371
		c0.65-1.721,1.493-4.479,3.795-4.274c5.14,2.507,7.921,8.126,13.026,10.747c3.088,1.049,6.542,0.638,9.585,1.915
		c5.254,2.644,6.154,9.915,11.704,12.149c6.405,1.151,13.083-1.755,19.374,0.49c5.995,2.975,6.77,10.36,9.653,15.716
		c3.134-2.314,5.072-6.052,8.593-7.83c0.775,0.513,1.539,1.071,2.291,1.664c2.298,30.048-11.232,32.187-8.787,48.322
		c0.011,4.194,3.613,7.191,4.069,11.249c-0.957,5.664-4.992,10.098-6.963,15.374c-0.684,3.157,0.524,7.055-2.154,9.528
		c-11.739,11.784-28.8,14.519-43.194,21.699c-10.448,4.984,8.955,19.111-35.866,11.841c-6.451-1.003-12.263-4.479-18.816-4.969
		c-7.328-0.98-14.975-0.399-21.984-3.134c-30.776-12.187-7.517-14.255-45.256-8.491c-0.228,0.821-0.456,1.664-0.661,2.519
		c-2.758-0.992-5.619-1.607-8.399-2.507c-2.086-1.185,0.16-3.453,0.422-5.049c12.519-28.756-4.164-52.18,3.761-65.873
		c3.339-6.086,11.112-7.704,14.622-13.676c4.912-6.747,5.049-16.833,12.856-21.312c2.325-1.561,6.792-3.772,8.126,0.103
		c-0.444,5.174-0.467,10.61,2.12,15.317c1.14-17.631,1.573-35.398-1.356-52.881c-18.896,9.938-35.387,23.66-53.029,35.546
		c-43.469,28.641-61.028,36.515-82.968,64.392c7.703,16.229,11.564,45.11,12.764,62.83c7.738,0.376,15.431,1.766,22.759,4.331
		c5.3-18.6,3.658-38.213,2.428-57.246c0.228-0.011,0.684-0.057,0.923-0.068c0.608,20.129,4.556,38.11-1.915,57.896
		c4.308,1.926,8.422,4.274,12.343,6.918c4.81-7.276,13.055-24.431,34.874-30.942c-19.701,11.034-21.302,12.48-33.62,31.843
		c4.046,3.214,7.567,7.009,10.838,10.998c5.733-1.288,11.556-2.2,17.414-2.701c0.501-4.695,2.541-10.166,7.408-11.796
		c8.32-3.111,15.807-8.069,24.081-11.237c-8.365,4.901-15.921,11.226-24.879,15.044c-2.2,1.926-2.929,4.855-3.795,7.533
		c4.627-0.57,9.311-1.014,13.961-0.445c-4.319,0.501-8.673,0.342-12.981,0.821c2.903,2.491,18.005,3.54,9.619,11.488
		c-10.384,10.384-13.044,7.584-8.228,31.706c2.268,9.995,3.088,20.309,6.154,30.133c2.975-3.009,4.319-8.012,8.753-9.266
		c5.584,1.022,20.118,19.16,22.668,23.853c-8.035-6.451-13.756-15.693-22.714-21.118c-2.927,3.262-9.283,16.716-12.388,4.764
		c-2.576-9.38-3.396-19.124-5.63-28.583c-5.097-27.767-0.334-22.605,11.192-35.717c-4.148-2.826-10.189-2.097-13.289-6.485
		c-5.539,0.684-10.986,1.88-16.446,3.031c3.077,4.889,5.972,9.972,7.773,15.488c-3.727-4.673-7.169-9.573-11.226-13.972
		c-18.357,4.197-36.436,21.752-42.521,23.694c0.875-4.055,25.783-20.663,41.336-25.358c-2.849-3.054-5.562-6.268-8.981-8.696
		c-3.658,4.992-6.12,10.793-9.801,15.75c-0.399,0.16-1.208,0.49-1.607,0.65c2.929-6.063,6.576-11.75,10.211-17.403
		c-3.715-2.633-7.704-4.866-11.853-6.747c-2.403,6.326-15.011,26.528-18.702,25.665c6.177-8.445,13.471-16.411,17.255-26.327
		c-6.792-2.143-13.813-3.624-20.936-3.92c0.057,3.715,0.456,7.408,0.775,11.123l-2.257,0.148c0.16-3.704,0.16-7.419-0.103-11.112
		c-5.015-0.308-10.041-0.023-14.907,1.299c1.083,6.325,2.439,12.605,3.465,18.941c-3.343-0.202-1.421-2.713-5.14-18.235
		c-4.513,2.405-8.798,5.231-13.357,7.567c6.622,10.075,10.155,21.916,11.078,33.86l-1.721-0.798
		c-1.687,1.345-2.952,1.333-2.883-1.14c0.775,0.08,2.314,0.228,3.077,0.296c-1.71-11.009-4.547-22.041-10.77-31.444
		c-3.955,2.633-7.909,5.938-8.559,10.975l-1.698-0.08c1.87-8.763-0.471-7.336,8.411-13.813
		c-5.174-8.046-14.166-12.354-23.352-13.938c9.619,0.513,18.873,5.368,24.309,13.403c4.901-2.792,9.642-5.904,14.747-8.32
		c-3.066-12.935-7.1-25.711-12.149-37.997c-8.385,17.412-10.791,12.767-38.703,40.265c-4.901,4.661-6.701,11.363-10.2,16.958
		c-3.328,5.436-7.34,10.77-8.308,17.255c-1.14,7.51-1.778,15.454,0.661,22.782c1.789,0.672,3.579,1.276,5.402,1.903
		c-9.897-34.056,8.788-47.201,15.465-55.878c1.972-2.279,3.67-4.992,6.439-6.394c-8.595,13.449-29.878,29.122-21.266,61.964
		c11.588-2.94,25.174-10.774,28.663-22.36c0.331,0.365,0.992,1.105,1.311,1.47c0.08,10.736-6.12,20.07-13.346,27.466
		c-4.114,3.875-4.16,10.189-7.852,14.166c-0.33-3.248,0.661-6.371,1.379-9.482c-2.963-0.342-5.869-1.037-8.741-1.835
		c-1.839,9.16-2.946,22.183-0.707,29.974c0.547-0.194,1.641-0.581,2.188-0.786c0.114,0.376,0.342,1.14,0.467,1.516
		c-0.695-0.091-2.074-0.273-2.758-0.365c1.379,3.795,2.963,7.545,5.311,10.861c7.522-1.299,14.77-3.704,21.779-6.701
		c-0.205-1.254-0.387-2.496-0.558-3.727c0.684-0.023,2.051-0.057,2.735-0.08c-0.068,0.695-0.194,2.086-0.251,2.769
		c2.906-2.063,8.274-2.359,9.243-6.2c5.202,0.286,26.105-14.312,29.939-17.79c3.544-3.054,4.855-7.955,8.65-10.69
		c0.034-0.558,0.103-1.652,0.125-2.211c0.581,0.034,1.732,0.103,2.302,0.137c0.057,0.946,0.114,1.903,0.182,2.883
		c-3.624,0.638-4.217,5.197-6.724,7.465c-3.487,4.627-8.593,7.499-13.186,10.861c0.923,2.644-1.573,3.123-3.567,2.245
		c-15.511,9.448-31.535,19.648-49.861,22.212c0.513,0.821,1.527,2.45,2.029,3.26c0.992-0.866,1.653-2.667,3.43-1.732
		c-0.593,0.399-1.767,1.208-2.348,1.607c0.992,1.903,2.359,3.556,4.046,4.901c5.744-1.584,11.568-2.804,17.3-4.399
		c2.04-3.442,3.248-7.545,5.938-10.496c1.071,0.775,2.131,1.596,3.191,2.439c-0.125,0.513-0.376,1.527-0.501,2.04
		c-1.128-0.103-2.245-0.182-3.351-0.251c-0.9,1.88-1.892,3.727-2.861,5.584c2.69-0.729,5.345-1.584,7.978-2.541
		c0.205-1.755,0.08-3.875,2.371-4.034c0.034,0.821,0.114,2.473,0.148,3.294c4.422-1.937,9.573-3.146,13.22-6.245
		c-0.331-0.467-0.992-1.39-1.322-1.846c0.422-0.103,1.276-0.296,1.71-0.399c-0.091,0.661-0.274,1.994-0.365,2.655
		c1.208-0.729,2.439-1.447,3.67-2.154c-0.148-0.992-0.296-1.983-0.444-2.952c1.311-0.171,2.61-0.114,3.932,0.103
		c2.382-2.473,6.849-4.433,6.086-8.502c1.527-0.011,3.18-0.216,4.034-1.653c6.359-7.522,12.388-15.397,17.198-24.013
		c0.672-1.299,1.698-2.188,3.089-2.667c0.771,4.214-27.641,45.557-50.989,49.496c-1.185,5.687-1.299,11.613-3.282,17.141
		c3.624,1.208,6.952,3.111,10.109,5.254c0.103-6.576,1.242-13.083,1.641-19.637c0.444-0.274,1.356-0.821,1.812-1.094l0.228,2.268
		c0.695,0.046,2.097,0.137,2.804,0.194c-0.194,1.128-0.376,2.268-0.558,3.43c-0.524-0.308-1.584-0.9-2.12-1.197
		c-1.504,5.607-1.151,11.511-2.416,17.186c1.675,1.311,3.351,2.633,5.037,3.966c5.436-10.941,8.73-22.748,11.807-34.498
		c1.493,0.216,2.975,0.467,4.467,0.741c-0.114,0.604-0.365,1.801-0.49,2.405c-0.672-0.08-2.017-0.239-2.69-0.319
		c-0.855,5.288-4.741,10.565-2.462,15.91c-0.661,0.285-1.983,0.843-2.644,1.128c-2.006,5.277-4.046,10.565-6.735,15.557
		c5.653,4.422,11.169,9.026,17.118,13.061c1.071-6.576,1.459-13.254,2.621-19.808l1.618-0.057c0.274,6.941-1.482,13.79-2.655,20.594
		c0.684,1.561,2.781,1.846,4.023,2.906c0.775-10.633,1.071-21.323,0.9-31.991c-1.459-0.479-2.918-0.946-4.365-1.39
		c0.011-0.49,0.023-1.459,0.034-1.949c0.627-0.171,1.892-0.513,2.53-0.684c-0.08,0.593-0.228,1.767-0.308,2.359
		c0.524-0.159,1.561-0.479,2.086-0.638c-0.718-4.969,0.148-10.063-1.151-14.93c0.228-0.912,0.672-2.724,0.9-3.636l1.732,0.866
		c1.464,18.352-0.762,52.245-0.729,53.246c2.94,1.151,5.96,2.097,9.049,2.804c2.826-15.996-0.142-37.78-0.103-42.909
		c0.547,0.194,1.653,0.593,2.2,0.798c1.539,14.052,1.242,28.275-0.33,42.328c5.231,0.843,10.508,0.148,15.705-0.638
		c-0.146-1.002-10.481-57.891-9.117-67.218c5.256,2.025,0.49,19.221,10.793,66.568c9.619-2.473,18.474-7.385,25.597-14.314
		c-3.363-14.145-15.569-42.144-19.762-49.416c-0.923,0.125-1.846,0.262-2.758,0.422c-0.057-1.242-0.103-2.473-0.148-3.693
		l1.037,0.08c0.798-1.151,1.858-1.96,3.191-2.427c6.77,17.756,15.237,34.977,19.739,53.508c6.519-6.223,10.257-14.656,13.539-22.896
		c0.821-0.878,1.675-1.709,2.348-2.701c-7.043-12.774-4.871-28.454-44.732-50.02c-2.644-1.607-6.542-2.439-7.282-5.881
		c4.809,0.524,8.445,4,12.457,6.348c29.888,18.042,41.282,33.391,48.482,87.014c6.181-4.648,24.288-21.671,74.09-14.132
		c-22.518,0.111-54.078,2.21-72.574,14.975c-0.148,0.524-0.456,1.573-0.604,2.097c4.684,0.182,9.368,0.228,14.064-0.125
		c-4.023,2.587-8.821,3.499-13.38,4.684c0.513,4.422,0.957,8.867,1.265,13.323c-0.821-4.274-1.276-8.593-1.653-12.901
		c-8.627,2.074-16.947,6.154-22.873,12.901c1.719,72.92,5.025,50.313-19.135,162.985c0.399-7.807,3.248-15.203,4.547-22.873
		c23.013-122.033,11.447-87.714,13.277-138.516c-9.646,12.283-21.767,37.275-22.36,38.339c0.068-3.951,8.74-28.224,22.395-43.741
		c0.011-7.659-0.741-15.351-2.211-22.862c-6.884,7.362-15.602,13.061-25.415,15.568c0.786,5.026,1.801,9.961,2.576,14.953
		c-2.108,1.151-4.684,0.98-5.06-1.892c-7.317,3.009-14.93,5.63-22.03,8.901c4.16,0.889,9.562-1.151,12.457,2.849
		c-2.405,3.146-6.678,3.089-10.189,3.943c-10.888,83.455-12.669,78.218-30.714,155.509c0.866-8.422,3.396-16.548,4.98-24.845
		c9.742-50.458,11.265-34.017,24.036-130.265c-3.772,0.832-7.499,1.789-11.226,2.792c-0.388,1.333-0.775,2.667-1.128,4.034
		c2.724-0.433,6.086,0.558,6.439,3.761c-1.573,3.339-5.676,4.319-8.411,6.553c-7.134,36.492-20.491,71.378-34.578,105.659
		c0.513,0.251,1.55,0.752,2.063,1.003c-6.521,4.884-7.036,12.66-19.306,38.236c-0.695-0.513-1.482-0.741-2.314-0.593
		c0.866,1.63,1.55,3.374,0.16,4.98c-3.43,7.203-5.448,14.907-7.191,22.668c0.251-0.034,0.741-0.091,0.98-0.114
		c10.748-18.022,10.767-19.105,13.266-19.682c2.507,0.262,3.829,3.1,2.348,5.186c-9.171,20.693-19.453,32.617-14.565,63.753
		c0.638-6.815,0.479-13.665,0.946-20.469c1.242-3.396,3.123-7.328,6.77-8.582c7.446,0.57-1.27,17.372,1.288,46.442
		c1.607,11.146,9.927,19.739,12.274,30.646c2.473,10.109,0.513,20.583,1.653,30.805c1.151-5.003,1.664-10.257,3.955-14.907
		c1.117-2.473,4.627-2.222,5.698,0.16c1.949,5.847,1.607,12.149,2.165,18.235c2.564-4.582,4.616-9.448,7.431-13.87
		c0.558-0.08,1.675-0.24,2.234-0.319c-14.517,32.11-13.043,35.926-12.73,47.433c2.462-3.544,4.832-7.579,8.946-9.391
		c2.222-0.638,4.034,1.356,4.536,3.351c1.588,15.702-3.793,15.677,7.146,39.911c-0.011-5.698-0.992-11.454-0.16-17.107
		c2.349-8.826,18.028,11.219,7.864,54.818c-0.741,3.841-1.96,7.636-1.949,11.59c10.826-26.158,12.554-45.963,18.656-39.569
		c4.661,4.536,7.807,11.408,5.094,17.847c4.673-0.946,10.052-5.425,14.656-2.291c2.12,4.103-0.946,8.525-1.96,12.548
		c-3.898,9.55,0.467,19.762,5.288,28.093c0.057-5.265,0.729-10.599,2.747-15.477c0.809-2.143,3.59-3.146,5.151-1.14
		c1.96,4.547,1.185,9.676,2.325,14.44c0.558,2.997,3.59,4.946,3.806,8.08c0.41,5.265,0.171,10.553,0.296,15.841
		c1.265-5.334,0.274-12.206,5.345-15.75c6.277-3,20.608,11.704,15.75,24.925c-2.165,4.547-7.453,5.892-11.363,8.479
		c4.775-0.399,9.619-0.775,14.212-2.222c4.752-2.268,3.248-9.311,7.043-12.172c0.558,3.43,2.165,7.157,0.524,10.553
		c-2.611,4.986-2.966,22.474,2.154,30.726c11.471,18.407,9.675,8.439,13.311,40.47c0.262-0.171,0.786-0.513,1.048-0.684
		c2.131-4.525,3.214-9.676,6.394-13.596c0.467,0.103,1.402,0.319,1.869,0.422c0,0,9.536,31.276,14.702,47.285
		c-0.65-5.14-3.1-10.337-1.846-15.511c3.476-4.297,12.639-4.445,13.938,1.88c3.668,12.41,1.447,17.337,21.141,44.687
		c1.949,2.872,4.969,4.741,8.16,5.983c-0.068-4.376-1.322-8.684-1.037-13.026c0.718-3.054,4.821-2.701,5.744,0.046
		c6.69,14.861,11.704,30.441,18.429,45.291c4.114,8.912,12.81,15.351,14.782,25.301c3.656,18.622,1.516,15.747-0.285,18.748
		c0-1.128-0.011-3.362-0.011-4.479l-0.9-0.16c-1.378,18.141-21.462,10.442-36.629,11.625c-5.106,0.433-7.02,5.869-9.391,9.596
		c-3.937,7.719-12.291,7.077-8.206,27.409c0.866,6.245,6.565,10.211,8.183,16.218c8.672,19,4.485,13.344,30.851,16.411
		c-5.368-1.687-10.907-2.724-16.275-4.331c0.699-4.022,18.821,3.685,41.359,3.727c14.757,0.841,24.668-19.289,43.741,4.114
		c8.788,11.299,29.725,16.701,60.084,32.013c51.785,25.863,67.648,21.144,104.201,28.492c44.54,8.553,61.27,22.813,119.107,26.258
		c38.37,1.95,72.558-6.256,89.977-9.152c10.994-2.494,11.768,0.955,47.205,5.379c-2.222-4.832,1.22-9.516,4.251-13.004
		c7.667-7.99,9.439-4.281,17.107-3.031c2.336-0.502,3.544-2.804,4.775-4.616c10.663-18.461,6.834-23.227,12.457-29.78
		c14.79-17.724,16.114-0.26,17.483,3.613c1.163-5.311,2.633-10.872,6.473-14.93c12.716-13.739,14.009-8.698,16.332-6.131
		c3.544-7.02,7.545-13.824,11.852-20.4c6.287-8.398,9.295-3.439,9.095,2.279c-0.274,5.812-1.117,11.579-1.425,17.403
		c2.61-2.473,4.513-6.234,8.308-6.998c2.53,0.456,3.647,3.009,5.117,4.855c1.698-4.388,3.852-8.593,5.448-13.015
		c1.561-1.048,3.134-0.604,4.65,0.388c1.846-2.644,3.282-6.12,6.542-7.26c2.621,0,3.157,3.271,3.533,5.288
		c3.373-4.741,8.73-7.499,14.497-7.909c7.955-0.923,16.172-2.781,24.116-0.821c0.661,1.516,1.835,3.476,0.171,4.844
		c-6.428,5.858-15.579,7.602-22.281,13.026c11.823,1.305,11.494-0.86,29.141,9.311c2.587,1.584,6.052,3.316,5.664,6.963
		c1.949,0.296,4.262,2.2,6.063,0.57c8.65-7.225,17.175-14.793,24.024-23.796c12.038-15.952,35.727-78.787,37.005-82.638
		c4.673-14.497,7.066-29.78,6.53-45.017c0.148,0,0.456-0.011,0.615-0.011c0.764,7.898,1.06,15.842,1.391,23.785
		c15.767-29.404,1.841-62.59,16.115-78.888c-0.274,6.884-0.501,13.779-0.228,20.685c3.983-5.885,15.369-31.832,14.987-55.035
		c0.125-7.556-1.425-15.135-0.445-22.645c4.135-3.109,3.996,5.861,6.986,15.169c13.994-32.535,2.727-68.352-0.991-91.744
		c-0.604-2.838,3.556-4.969,5.049-2.154c6.986,8.274,5.379,19.511,6.371,29.495c1.766-8.992,1.801-18.212,1.607-27.329
		c-0.501-5.448-6.405-7.852-8.502-12.457c0.365-4.673,6.895-3.146,9.083-0.615c2.69,4.821,4.171,10.223,6.131,15.385
		c-1.876-15.187-18.026-50.815-9.995-51.354c3.123,0.638,5.197,3.282,7.374,5.402c-1.796-10.168-2.629-26.797-15.955-52.596
		c-0.878-1.949-3.214-3.966-1.641-6.188c4.681-3.375,5.497,5.217,15.522,18.941c-4.08-9.687-8.342-20.366-17.756-26.064
		c-2.507-2.291-7.18-3.1-7.909-6.69c1.96-4.593,6.211-0.137,8.958,1.276c-4.673-11.157-7.545-23.249-15.135-32.948
		c-1.299-1.698-4.24-5.436-0.638-6.314c4.49,0.946,8.548,3.43,11.237,7.203c-9.37-30.836-17.683-32.948-29.21-44.903
		c-0.16-0.41-0.456-1.242-0.604-1.653c2.101,0.33,16.965,0.743,24.811,15.522c-2.2-4.98-3.772-10.439-7.579-14.485
		c-11.33-12.673-2.436-5.673-22.577-20.753c-1.47-1.208-3.373-2.177-4-4.069c7.328,1.368,14.474,3.795,20.708,7.955
		c-8.532-13.288-17.985-21.785-23.227-24.97c-4.946-2.918-7.51-8.229-10.975-12.548c5.501-2.401,10.963,3.098,21.62,10.063
		c-6.929-17.893-23.124-29.267-36.732-41.792c-1.994-1.128-0.741-4.809,1.596-3.875c11.761,4.194,21.813,12.001,30.828,20.457
		c-27.824-46.036-21.348-32.029-50.408-55.89c3.1-0.604,6.246-1.128,9.437-1.071c2.439,0.718,4.581,2.143,6.918,3.168
		c-15.865-16.377-8.739-7.113-34.532-24.002c11.604,0.193,7.384-1.537,18.155,3.066c1.026,0.399,1.31,1.447,0.593,2.302
		c-1.938-0.969-3.841-1.732-5.824-2.473c17.766,12.16,4.642-2.809,30.224,25.255c1.596,1.459,0.171,4.262-1.949,2.655
		c-5.265-2.052-10.28-4.753-15.739-6.268c27.567,12.862,36.098,30.605,48.356,58.841l-0.593,0.729
		c-6.884-3.567-12.776-8.901-19.363-13.027c15.355,16.663,16.47,12.234,21.471,34.487c-4.912-1.265-9.038-4.354-13.767-6.052
		c1.008,0.938,22.956,15.437,32.64,37.621c-0.65,2.758-3.225,1.789-5.072,1.197c6.825,8.013,9.389,6.882,16.788,35.034
		c-0.422,0.08-1.242,0.217-1.653,0.296c-3.635-4.046-6.701-8.57-10.485-12.468c13.961,22.081,13.559,25.087,14.565,42.476
		c-2.655-1.641-4.205-4.468-6.542-6.451c5.265,10.12,8.559,21.095,12.4,31.797c8.757,6.658,14.019,26.105,14.953,32.31
		c-0.524,0.251-1.55,0.752-2.063,1.014c-1.105-0.991-2.2-1.96-3.282-2.906c6.808,19.339,9.462,32.252,6.508,54.693
		c-0.49,2.017,0.433,5.151-2.302,5.698c-1.96-6.861-2.199-14.223-5.299-20.697c3.396,16.297,7.864,32.435,10.28,48.926l-0.889,0.65
		c-2.006-1.368-2.952-3.75-4.285-5.664c-0.9,8.149-2.143,16.263-4.069,24.241c-0.251,1.744-1.185,3.18-2.849,3.909
		c1.106,7.385,2.359,14.816,2.314,22.315c-0.975,11.204-6.425,33.526-11.716,40.231c-1.709-1.767-2.781-3.966-3.92-6.075
		c1.527,12.582,2.667,25.95-2.051,38.042c-2.851,8.039-10.059,25.394-15.955,31.808c-0.524-0.627-1.573-1.869-2.097-2.484
		c-1.531,27.054-0.679,42.371-13.745,58.75c0.461,24.097-29.141,90.349-41.632,105.249c-8.035,8.696-17.62,15.864-27.478,22.36
		c14.006,5.199,23.449,14.764,19.158,20.64c-3.67,2.929-8.821,2.108-13.197,2.553c3.32,24.17,1.056,19.01-6.895,20.594
		c-10.936,14.419-6.471,21.598-15.99,25.255c-9.254,3.966-19.146,6.12-28.708,9.174c-11.716,3.385-22.474,9.778-34.623,11.67
		c-22.903,4.3-44.808-12.258-60.938-16.525c-12.931-4.183-38.171,3.695-45.222-0.604c-3.601-4.718,3.613-7.966,6.553-10.645
		c-13.642-0.558-27.569-0.16-40.789-4.046c-17.478-4.667-38.158,8.232-88.142,8.559c-66.117,2.11-92.8-18.072-141.297-26.782
		c-39.015-7.422-49.614-2.075-106.788-30.429c-22.137-11.069-46.648-19.069-55.491-29.05c-4.205-4.433-7.727-10.519-14.246-11.693
		c-6.986-0.718-12.742,4.262-19.215,6.006c-6.758,2.382-13.813,0.296-20.662-0.194c-43.856,4.907-42.122-2.868-48.767-18.782
		c-2.006-5.334-6.941-9.186-7.807-14.998c-4.202-25.302,3.925-23.191,8.855-32.207c2.633-4.593,5.482-10.018,11.043-11.419
		c20.419-2.964,35.405,9.132,36.891-16.354c-2.678-11.237-12.172-18.862-16.605-29.244c-4.49-10.667-8.924-21.392-12.662-32.344
		c-8.534,15.322-24.882-13.293-32.811-28.366c-3.715-7.134-4.661-15.226-6.918-22.851c-1.413,0.444-4.114-0.661-4.49,1.288
		c-0.547,5.653,0.821,11.34,0.171,17.015c-4.723,4.561-19.839-33.531-18.748-49.12c-2.336,4.49-3.168,9.813-6.553,13.733
		c-6.725,3.006-3.451-17.758-12.571-31.535c-7.197-10.638-13.027-14.53-8.764-36.561c-5.294,1.249-24.821,2.629-20.48-3.419
		c3.077-3.054,7.374-4.821,9.813-8.525c2.587-7.51-2.302-15.488-8.741-19.249c-3.75,7.18-3.203,15.819-6.941,22.999
		c-0.547,0-1.63,0.011-2.177,0.011c-3.009-8.673-1.778-18.235-3.795-27.159c-1.664-2.849-3.818-5.55-3.59-9.038
		c-0.65,3.51,0.695,7.556,0.695,11.26c-1.276,0.764-2.678,2.792-4.331,1.698c-4.724-2.953-14.202-19.979-13.505-31.421
		c0.638-6.143,4.433-11.283,6.063-17.129c-5.243,1.128-9.995,6.314-15.545,4.411c-4.423-4.167,2.81-12.711-4.103-19.659
		c0.197,10.132-13.697,37.676-16.56,41.53c-0.558-0.023-1.653-0.057-2.211-0.08c-1.092-12.877,5.568-42.139,1.561-55.799
		c-0.239,4.046,1.242,9.152-1.766,12.422c-3.006,1.273-6.15-0.128-14.257-25.529c-2.291-7.157,0-14.622-0.741-21.927
		c-8.206,8.818-3.812,12.657-4.331,22.862c-3.839-1.327-9.338-19.778-9.494-28.936c0.285-6.918,3.613-13.163,6.086-19.477
		c-0.536-5.63-1.47-11.499-3.636-16.719c-1.937,4.604-2.758,9.915-5.949,13.87c-5.278,5.014-2.444-19.659-6.838-35.079
		c-2.348-9.573-9.186-17.278-11.477-26.874c-3.134-12.331,0.046-25.016,0.011-37.415c-1.105,7.818-1.345,15.762-3.259,23.466
		c-4.118,5.99-7.158-23.057-6.975-32.845c0.376-8.855,4.137-17.095,7.944-24.948c-1.482,1.413-2.895,2.929-4.536,4.183
		c-2.553,0.672-1.333-3.271-2.211-4.399c-5.983,12.935-11.374,26.167-17.699,38.943c5.183-14.292,17.775-39.199,18.748-44.185
		c6.617-37.882,10.773-39.484,16.685-47.923c-2.12,1.14-4.866,1.675-6.302,3.772c-3.316,6.849-4.798,14.576-8.798,21.095
		c-4.349,1.706-2.597-5.264-0.695-27.546c3.137-23.212,5.74-17.355,10.815-29.768c-2.838,1.869-5.174,6.337-9.129,5.015
		c2.097-12.502,8.969-23.58,12.947-35.524c2.576-8.468,8.103-15.545,14.371-21.608c-2.895,0.684-6.473,4.684-9.083,2.154
		c0.524-5.71,5.322-9.972,8.513-14.485c10.732-14.519,28.605-20.918,33.073-26.007c-3.636,1.265-6.975,3.351-10.781,4.126
		c-0.547-0.536-1.652-1.596-2.211-2.131c2.735-6.428,8.365-11.636,14.69-14.497c2.188-10.211,3.18-20.617,4.809-30.919
		c-1.766-0.786-3.51-1.573-5.277-2.279c-4.62,25.162-61.391,82.3-83.003,93.237c0.973-1,72.12-55.357,81.692-94.297
		c-6.941-3.977-13.391-8.707-20.047-13.118c-1.254,1.527-2.747,2.872-3.795,4.559c-1.242,6.097-2.143,12.422-5.402,17.859
		c-2.747,4.536-4.969,9.539-8.719,13.368c5.345-9.06,10.929-18.486,11.864-29.221c-7.499,6.827-15.18,13.539-23.557,19.249
		c1.915-2.655,4.809-4.274,7.237-6.382c5.801-4.821,11.579-9.733,16.742-15.226c0.501-2.439,0.672-4.935,1.117-7.362
		c-3.772-2.496-7.727-4.684-11.659-6.884c-9.132,19.824-22.071,32.088-48.231,40.766c14.279-7.196,33.66-13.047,46.704-41.062
		c-4.183-2.222-9.072-2.906-13.334-5.026c-10.202,16.593-23.269,35.646-65.315,63.389c34.687-27.553,44.406-33.096,63.742-63.993
		c-3.807-2.655-7.624-5.265-11.157-8.274c-13.804,10.244-49.94,38.726-49.941,38.726c16.406-15.121,49.097-40.675,49.097-40.675
		c-10.884,2.074-21.563,5.721-32.629,6.576c10.212-2.165,20.047-5.721,30.281-7.75c-2.462-2.758-4.707-5.71-6.792-8.753
		c-12.753,0.821-25.734,1.117-38.373-0.957c26.258,2.02,28.965,0.241,37.86-0.091c-3.043-4.923-4.673-10.508-5.641-16.161
		c-9.872-0.098-18.801-3.659-53.941,14.474c-5.117,2.496-9.323,6.428-14.28,9.186c6.487-5.54,16.305-15.438,48.892-24.663
		c6.302-1.766,12.913-1.322,19.295-0.239c-0.114-2.69-0.217-5.368-0.205-8.046c-23.282-1.648-35.134-1.063-85.487,12.308
		c22.161-9.188,56.176-16.545,85.704-14.064c-0.091-1.88-0.023-3.738-0.319-5.573c-38.694-11.074-39.117-5.876-74.877-3.282
		c41.186-7.051,45.431-7.138,75.287,1.71c0.604-3.282,1.276-6.542,2.131-9.767c-11.75-5.894-11.19-21.993-8.707-34.897
		c1.322-5.744,4.695-10.679,7.955-15.465c5.416-7.841,5.207-13.865,19.238-27.329c-16.889-34.211-21.908-28.906-38.077-32.025
		c20.731,0.446,22.295,0.304,39.307,30.634c2.177-2.462,4.707-4.604,6.713-7.214c3.788-30.494-10.726-42.635-14.007-47.034
		c13.437,10.588,17.391,28.936,16.047,45.256c4.73-5.003,11.123-8.126,15.386-13.608c-17.491-39.006-24.393-54.897-45.621-76.05
		c17.266,7.95,39.345,56.913,46.898,73.771c2.416-3.282,4.411-6.849,6.394-10.394c-7.467-17.108-33.537-54.826-37.757-65.189
		c33.625,51.84,33.73,52.21,38.806,63.765c4.627-7.807,10.223-14.953,15.91-21.996c-11.112-21.414-24.993-41.222-39.193-60.654
		c-3.282-4.775-8.456-7.716-12.183-12.058c3.818,2.655,7.864,5.14,11.157,8.456c14.975,20.001,29.347,40.584,41.188,62.625
		c23.16-26.513,32.225-30.707,79.287-62.488c19.329-12.457,37.336-27.056,58.009-37.324c-5.651-33.53-25.861-55.773-33.415-67.07
		c1,0.639,27.008,26.492,35.136,66.352c2.416-1.265,4.878-2.439,7.351-3.579c-9.958-38.758-14.972-35.4-41.347-73.988
		c5.174,5.881,9.756,12.263,14.599,18.417c0.513,0.091,1.539,0.262,2.051,0.342c-0.239,0.262-0.729,0.798-0.969,1.06
		c15.127,20.812,19.155,22.311,26.965,52.881c2.667,0.33,5.357-2.245,7.978-3.123c-0.018-30.996-30.148-82.544-52.083-103.984
		c0.376-0.399,0.764-0.786,1.162-1.162c12.363,14.681,16.128,11.507,35.911,47.718c9.015,17.471,18.235,35.866,18.394,55.981
		c2.188-0.98,4.467-1.801,6.542-3.009c0.452-1.639,2.83-22.09,0.524-27.227c-9.804-25.715-29.497-61.683-52.984-86.98
		c27.809,21.266,53.456,83.632,54.043,84.632c-2.704-26.763-42.143-90.498-48.539-105.272c6.359,9.87,11.465,20.526,17.232,30.748
		c35.789,67.556,31.083,57.987,33.233,81.168c2.12,6.747,3.499,13.756,3.237,20.856c0.524-0.399,1.573-1.208,2.086-1.607
		c-5.536-64.498-34.143-138.053-45.804-153.343c-5.425-7.727-12.32-14.212-18.805-21.004c24.83,19.269,31.076,40.638,34.737,49.462
		c15.5,40.071,28.207,81.817,31.204,124.863c49.224-16.805,92.042-19.191,153.184-19.329c1.789-10.2,4.251-20.275,5.949-30.486
		c3.234-16.893-1.308-95.882,44.071-180.935C592.782,103.365,621.228,66.052,640.158,54.053 M636.807,64.389
		c-12.525,11.625-21.905,26.053-32.378,39.433c-13.175,17.027-22.178,36.686-31.603,55.89
		c-30.403,64.765-12.58,85.868-37.29,176.114c3.989,0.091,7.989,0.182,12.001,0.262c2.143-3.658,6.348-4.798,9.528-7.214
		c2.439-3.647,2.507-8.331,3.522-12.514c3.886-25.164,15.329-48.242,21.597-72.78c14.795-58.199,78.428-142.014,133.274-168.638
		c-15.505-22.986-25.374-26.307-39.843-25.973C661.527,49.836,647.235,54.611,636.807,64.389 M371.753,341.125
		c-0.707,5.698-1.368,11.431-1.584,17.175c1.083-0.513,2.188-1.014,3.305-1.504C373.143,351.553,372.733,346.288,371.753,341.125
		 M375.001,364.591c-4.534,40.913-9.45,36.548-5.619,43.33c6.754-20.549,8.483-25.399,8.012-44.368
		C376.802,363.816,375.594,364.329,375.001,364.591 M361.587,369.002c-0.695,12.103,0.023,24.264-0.912,36.356
		c1.55-1.527,3.373-2.655,5.505-3.157c2.963-12.229,5.938-24.56,6.667-37.165C369.063,366.289,365.291,367.543,361.587,369.002
		 M342.703,377.173c3.462,27.469,2.746,46.09,1.744,53.417c4.433-5.949,7.613-12.73,11.75-18.896
		c2.154-13.71,0.992-27.705,1.926-41.518C352.823,372.147,347.751,374.655,342.703,377.173 M396.757,384.752
		c-1.265,2.735-0.467,7.214-3.704,8.513c-2.986-0.479-4.969-3.077-7.203-4.855c0.342,2.462,1.265,5.117,0.194,7.556
		c-2.416,3.328-6.701,4.752-8.821,8.365c-2.496,3.305-3.761,8.069-8.023,9.562c-1.641,2.644-1.584,6.792-4.946,7.921
		c0.114-4.057,4.411-7.716,2.063-11.716c-1.242,3.544-2.108,7.226-3.499,10.724c-0.49,0.308-1.47,0.923-1.96,1.231
		c0.262-5.448,2.94-10.36,3.989-15.648c-8.33,9.232-2.876,9.262-5.881,22.771c-0.023,1.937-3.316,1.687-3.613,0.08
		c-0.251-3.499,0.376-6.963,0.615-10.439c-3.636,5.391-6.177,11.579-10.656,16.366c-3.858,4.779-11.004-8.242-7.134-19.83
		c-14.288,4.195-8.688,15.922-18.075,26.418c-4.148,4.673-11.648,6.428-13.232,13.152c-3.564,19.798,10.219,33.845-2.804,63.719
		c1.151,0.98,2.279,1.994,3.396,3.054c3.442-2.496,7.727-3.111,11.704-4.319c20.207-5.078,13.953-2.239,26.942,4.388
		c17.052,8.812,16.012,5.58,33.347,7.921c3.376,0.473,25.996,9.049,42.829,6.325c3.544-3.339,1.892-10.018,6.861-12.457
		c14.178-7.795,31.592-9.927,43.41-21.779c1.504-2.655,0.091-6.017,1.459-8.776c2.086-4.627,4.98-8.855,6.747-13.642
		c-13.91-22.745,8.518-32.142,5.801-59.263c-3.043,2.986-4.753,9.619-9.949,8.878c-5.129-3.658-4.046-11.989-9.63-15.386
		c-6.314-1.71-12.856,1.083-19.215-0.353c-4.844-1.71-7.077-6.633-9.961-10.451c-2.359-3.442-7.043-2.234-10.508-3.316
		c-5.322-1.892-8.342-7.043-12.742-10.223c-1.083,2.029-1.425,4.547-3.214,6.131c-2.906,0.65-3.123-2.53-4.183-4.365
		c-2.257-0.992-5.015-0.342-7.169-1.675C398.524,388.114,397.749,386.325,396.757,384.752 M371.81,406.303
		c2.496-4.844,6.394-8.525,10.793-11.613c1.653-3.898-1.47-7.83-4.935-9.323C376.448,392.525,374.101,399.42,371.81,406.303
		 M188.949,503.29c4.479,12.913,9.266,25.768,12.251,39.136c4.935-1.482,10.098-1.789,15.226-1.55
		c-1.493-20.902-4.456-42.031-11.967-61.713C198.317,486.491,192.904,494.583,188.949,503.29 M169.803,660.645
		c-2.553,3.271-4.228,7.18-6.405,10.724c4.262,0.878,8.559,1.573,12.764,2.644c1.276-5.311,2.006-10.747,2.678-16.161
		C175.831,658.81,172.731,659.482,169.803,660.645 M152.229,664.861c2.724,2.541,5.915,4.467,9.266,6.063
		c1.915-3.157,3.727-6.371,5.539-9.573C162.11,662.571,157.198,663.824,152.229,664.861 M285.457,679.586
		c-2.291,5.357-5.744,10.098-9.573,14.451c1.71,7.488,2.348,15.18,2.143,22.862c6.177-5.664,14.417-7.75,22.326-9.699
		c-2.576-13.995-5.117-28.002-8.981-41.701C288.807,669.922,287.747,675.016,285.457,679.586 M188.391,690.561
		c-1.071,0.809-1.368,1.835-0.9,3.066C189.223,694.447,190.51,690.493,188.391,690.561 M301.401,706.676
		c2.097-0.16,4.251-0.444,6.314-0.969l0.057-0.342c-0.889-0.068-2.678-0.205-3.579-0.274
		C303.361,704.75,299.27,705.445,301.401,706.676 M218.763,709.582c-0.969,9.949-2.496,19.865-4.319,29.7
		c3.727-1.094,7.545-1.846,11.249-3.032c-1.664-0.205-3.316-0.353-4.969-0.444c-0.33-0.57-1.014-1.698-1.356-2.268
		c0.615-3.157,4.627-3.647,7.032-5.037c1.037-5.425,1.288-10.941,2.029-16.4C225.168,711.417,221.931,710.619,218.763,709.582
		 M246.149,714.061c1.846,2.393,3.465-1.39,1.459-2.53C245.659,709.844,244.075,712.967,246.149,714.061 M230.137,712.238
		c-0.866,5.129-1.14,10.337-1.88,15.5c6.633-2.895,13.38-5.562,20.241-7.909c-2.336-2.507-4.764-4.912-7.237-7.248
		C237.545,712.876,233.807,712.83,230.137,712.238 M203.377,751.659c2.758-1.071,5.425-2.382,8.103-3.636
		c0.125-1.436,0.251-2.861,0.376-4.274C208.825,746.154,205.85,748.662,203.377,751.659 M183.399,776.834
		c-4.297,4.593-8.867,9.129-11.853,14.736c6.508-3.259,12.115-8.092,18.713-11.169c3.67-0.319,8.354-0.855,11.043,2.245
		c-11.08,1.495-8.057-1.059-17.391,7.431c-6.405,6.302-13.004,12.992-15.898,21.734c-3.886,11.431-10.2,21.87-14.075,33.313
		c12.66-12.367,13.482-21.49,34.692-17.403c8.342-22.714,15.568-45.872,20.56-69.577
		C200.255,763.876,190.773,769.062,183.399,776.834 M167.797,835.482c-3.647,5.106-4.923,11.477-8.536,16.628
		c-6.056,8.677-4.991,12.544-8.491,39.832c2.257-5.014,2.895-10.645,5.573-15.454c2.69-3.613,7.784-3.054,11.534-4.684
		c7.466-7.467,4.951-3.942,20.206-42.977C180.892,828.838,173.062,830.16,167.797,835.482 M165.836,881.764
		c0.433-0.148,1.311-0.433,1.755-0.581c0.672-1.197,0.9-2.416,0.695-3.658C166.737,877.981,165.905,880.214,165.836,881.764
		 M164.173,883.326c-1.767,5.197-3.977,10.223-6.143,15.272c0.365,0.707,0.752,1.425,1.151,2.165
		c1.607-5.322,3.955-10.371,6.268-15.386C165.027,884.67,164.606,883.987,164.173,883.326 M1019.818,1532.838
		c-2.541,0.775-3.533-1.949-4.046-3.784c-1.573,2.564-3.134,5.151-4.98,7.545c-0.707-0.137-2.131-0.399-2.838-0.536
		c-1.926,3.693-2.849,8.821-6.906,10.747c-3.442,0.57-4.513-3.761-5.664-6.12c-2.519,2.678-4.502,6.006-7.67,7.989
		c-2.519,1.812-5.516-0.809-5.345-3.533c0.034-6.576,1.254-13.072,1.47-19.637c-6.075,8.787-10.599,18.543-16.332,27.546
		c-1.276,2.712-5.596,1.766-5.778-1.174c0.068-2.177,0.513-4.297,0.866-6.416c-14.343,11.739-9.582,14.323-14.326,24.617
		c-0.923,2.165-4.388,3.408-5.789,1.049c-2.667-3.989-2.462-9.095-4.023-13.505c-2.257-0.262-3.533,2.222-5.06,3.51
		c-5.869,5.562-4.775,14.406-8.548,21.095c-3.066,5.778-5.22,12.81-11.044,16.457c-4.16,2.462-8.411-1.128-12.639-1.174
		c-4.057,2.028-7.146,5.801-8.775,9.995c4.353,1.276,11.078-0.274,13.357,4.752c0.41,4.411-4.468,6.496-6.963,9.402
		c38.01-2.631,32.477-5.229,63.024,8.627c38.243,16.272,43.788,2.874,70.603-4.49c37.995-12.087,28.411-6.91,34.395-20.172
		c6.919-15.254,9.988-14.268,14.645-14.896c-0.205-6.086-1.824-12.126-1.174-18.201c3.635-3.624,9.516-1.333,14.086-2.576
		c-5.981-10.881-13.253-10.94-34.544-18.315c-1.869-2.143-0.877-4.137,0.957-5.813c-13.631-7.132-12.763-5.262-24.013-6.644
		c-4.433-0.969-4.57-7.864-1.083-10.052c5.185-3.237,10.986-5.3,16.218-8.468C1017.156,1522.71,1030.674,1528.653,1019.818,1532.838
		z"/>
	<path fill="#171717" d="M655.532,143.927c-2.218,4.56-21.052,25.191-26.68,75.959c3.305-2.906,5.858-6.564,9.368-9.254
		c3.49,1.773,2.881,2.942-11.203,27.876c2.416-1.504,6.382-6.667,8.65-2.724c-2.541,7.681-9.904,13.3-11.59,21.471
		c-0.729,5.094,1.801,9.801,3.054,14.599c1.459,5.254-0.228,10.736,0.752,16.058c1.595-2.211,2.872-4.661,4.661-6.736
		c1.584-1.561,3.92,1.276,2.758,2.838c-4.73,9.904-4.479,21.141-4.775,31.865c2.826-0.251,5.687-0.855,8.559-0.57
		c2.393,1.413,0.741,4.479,0.684,6.656c-1.208,5.379-0.9,11.032,1.892,15.887c7.09,27.915-2.927,26.649-8.969,28.879
		c-0.376,0.524-1.117,1.584-1.493,2.108c0.422,8.867,0.638,18.28-3.282,26.44c0.558-5.698,1.573-11.431,1.242-17.175
		c-0.251-4.114-2.496-8.513-0.16-12.411c2.405-3.168,6.747-3.408,10.166-4.901c3.903-11.53-3.102-27.309-3.339-28.309
		c-0.57-4.604,0.034-9.266,0.946-13.779c-8.672,1.235-13.029,3.688-7.966-26.247c-5.744-1.801-4.912-8.867-4.627-13.619
		c0.843-6.838-3.784-12.707-3.761-19.454c-0.137-6.451,4.114-11.716,7.499-16.822c-1.812,1.185-5.789,3.841-6.154-0.046
		c2.507-7.305,6.838-13.881,10.553-20.617c-1.55,0.809-3.134,1.584-4.695,2.348c-3.054-2.758-2.177-6.986-1.561-10.565
		C633.117,171.925,642.728,158.025,655.532,143.927z"/>
	<path fill="#171717" d="M611.313,237.643c0.866,0.957,1.653,1.994,2.371,3.1c-0.513,0.308-1.55,0.935-2.063,1.242
		c-0.672,10.36-1.117,20.742-0.707,31.124c0.536,8.342,2.086,16.685,1.368,25.061c-1.792,25.77-1.592,27.344,0.046,30.395
		c1.858,3.408,4.73,6.519,4.832,10.622c-0.068,4.695-3.157,8.468-4.73,12.696c1.823,2.291,5.505,2.245,7.317,4.718
		c2.959,5.919-8.339,12-12.958,22.976c-3.715,8.684-3.214,18.394-2.587,27.603c-0.205,0.023-0.627,0.068-0.843,0.08
		c-4.534-30.35-3.846-27.485,11.545-48.128c-2.222-1.835-5.562-3.111-5.995-6.325c0.262-4.923,4.365-8.65,4.798-13.562
		c-0.775-5.049-5.516-8.434-6.074-13.574C607.523,324.671,602.714,259.885,611.313,237.643z"/>
	<path fill="#171717" d="M302.016,253.712c1.652-0.011,3.043,1.96,3.556,3.442c-0.467-0.08-1.413-0.239-1.892-0.319
		C302.529,256.003,301.971,254.966,302.016,253.712z"/>
	<path fill="#171717" d="M728.893,278.876c-14.215,60.252-46.616,63.256-68.54,77.977c-5.55,4.012-6.644,11.294-10.645,16.525
		c-1.586,2.015-24.043,29.009-26.247,31.079c1.653-2.895,3.647-5.562,5.448-8.365c31.676-50.022,18.213-38.561,41.792-51.798
		C719.2,320.221,716.614,306.578,728.893,278.876z"/>
	<path fill="#171717" d="M569.099,392.16c1.14,1.903,1.14,4.16,1.425,6.302c3.118,37.305,24.644,74.498-14.018,95.322
		c2.405-3.305,6.052-5.413,8.616-8.616c22.651-25.499,2.262-59.611,2.997-73.008C568.472,405.494,568.187,398.781,569.099,392.16z"
		/>
	<path fill="#171717" d="M390.774,429.45c5.881,0.9,12.662,0.718,17.118,5.334c8.296,8.196,21.769,2.052,31.375,26.919
		c0.627,1.425,1.265,2.997,2.633,3.92c4.137,0.798,8.342-0.342,12.024-2.234c-0.137-3.396,3.02-5.311,5.698-6.599
		c-0.935,2.496-1.858,5.026-1.675,7.75c-4.855,3.385-10.986,5.641-16.924,4.422c-4.342-1.493-4.855-6.553-6.838-10.052
		c-3.784-6.314-9.391-11.67-16.218-14.542c-18.7-8-9.821-9.631-23.694-10.485c-22.004-0.613-19.135-2.943-36.595,7.978
		c-11.306,7.271-20.07,18.166-25.175,30.555c-3.883,8.789,5.105,5.977-9.961,28.72c-0.865-3.147,3.602-7.827,5.356-17.072
		c0.399-4.559-0.41-9.323,1.516-13.642c4.205-11.009,10.36-21.882,20.104-28.891C373.312,423.904,377.69,428.817,390.774,429.45z"/>
	<path fill="#171717" d="M366.727,442.682c25.566-13.797,48.395,12.116,55.058,17.004c2.336,2.234,5.824,3.567,7.009,6.781
		c-0.764-0.091-2.279-0.296-3.043-0.388c6.547,13.132,4.416,10.392-4.559,32.435c-5.297,12.986-31.055,27.694-73.862-1.778
		c-2.644-2.279-6.325-0.467-9.402-1.322c1.482-3.032,5.288-2.963,7.864-4.57c-3.054-3.362-7.921-6.268-7.727-11.397
		c-0.376-4.798,2.952-8.639,4.16-13.061C344.247,458.919,345.224,453.951,366.727,442.682 M376.118,447.617
		c1.011,0.013,22.462-3.05,29.039,16.651c-6.274,4.374-4.762,9.218,1.345,11.34c-1.32,6.175,1.334,17.05-18.132,24.549
		c-14.096,5.494-45.246-2.652-34.828-38.874c-4.186,3.773-10.736,15.148-9.573,19.226c2.04,3.92,7.26,5.71,8.08,10.382
		c-0.365,2.211-2.382,3.294-4.228,4.114c27.871,18.224,50.077,17.156,63.48,9.22c6.547-3.854,13.191-21.297,14.371-25.483
		c1.219-4.604-0.536-9.334-2.496-13.448C408.741,461.775,397.557,437.801,376.118,447.617 M368.049,453.429
		c-12.911,4.144-16.969,22.85-10.588,30.714c1.356,1.846,3.841,4.798,5.721,1.846c-1.169-21.574,1.968-22.394,15.967-29.472
		c0.194-0.501,0.593-1.516,0.786-2.017C377.303,450.762,371.833,453.258,368.049,453.429z"/>
	<path fill="#171717" d="M685.152,449.155c2.872-1.937,6.394,0.855,9.448,0.889c-2.336,2.279-5.334,0.103-7.944-0.41
		c4.194,5.015,8.16,12.103,4.741,18.588c-3.613-1.242-6.519-3.966-10.348-4.65c2.462,6.462,8.536,12.001,7.442,19.466
		c-1.06,4.547-6.04,0.114-8.525-0.479c1.687,2.701,4.684,5.482,3.556,9.026c-1.493,1.903-3.67,3.009-5.698,4.205
		c-0.33,6.421,16.401,13.483,21.118-1.299c0.588-0.752,0.39-0.536,0.946-1.037c0.764,0.433,1.504,0.935,2.222,1.504
		c-1.108,18.047,4.081,17.664-21.073,36.287c4.057,0.821,8.206,0.365,12.309,0.251c-0.046-0.672-0.16-2.006-0.217-2.678
		c0.57,0.752,1.14,1.539,1.767,2.291c-1.915,0.558-1.938,3.043-3.453,4.126c-3.225,2.815-6.257,5.835-9.368,8.776
		c-4.285,3.989-10.006,6.485-13.186,11.613c5.391,3.909,12.343,3.362,18.463,5.094c-2.044,0.023-20.795-0.314-19.682-6.086
		c3.818-7.039,21.383-17.361,25.665-22.531c-4.354,0.353-8.719,1.539-13.083,0.866c-2.576-1.14-0.433-3.624,1.071-4.581
		c19.786-13.707,18.825-17.678,20.275-32.207c-0.832-0.615-1.561-0.581-2.177,0.091c-5.246,12.9-18.58,11.347-24.024,0.319
		c2.086-2.484,4.912-4.183,7.02-6.656c-1.573-2.815-3.362-5.482-4.958-8.263c3.225-2.154,6.416,1.39,9.63,1.96
		c0.707-7.499-4.741-13.311-7.932-19.534c0.228-0.501,0.695-1.504,0.923-2.006c4.479-0.137,7.761,2.963,10.998,5.573
		c0.137-4.536-0.513-9.243-3.134-13.049C687.055,452.779,685.175,451.286,685.152,449.155z"/>
	<path fill="#171717" d="M438.014,476.462c2.69-4.445,8.662-3.886,13.152-3.92c1.687,0.205,4.445-0.559,4.787,1.846
		c-4.844,0.422-10.474-0.239-14.428,3.157c-3.907,7.641-1.297,28.132-20.503,40.128c-10.786,6.792-36.113,9.902-48.505,6.77
		c-15.816-4.187-34.785-20.135-36.481-21.05c-4.08-0.513-6.416,3.658-9.345,5.755c11.055-25.653,21.3,11.62,53.929,12.969
		C439.7,523.814,432.928,487.506,438.014,476.462z"/>
	<path fill="#171717" d="M437.113,548.455c9.391-3.002,12.273-1.567,20.48,3.134c15.621,10.13,3.831,10.655-5.174,12.491
		c8.193,1.369,13.639,0.32,23.044,11.739c4.983,6.312,11.22,13.065,13.186,31.261c0.422,1.425-1.276,4.137-2.861,2.997
		c-3.909-2.462-5.265-7.773-9.71-9.516c-2.769-0.558-5.527,0.422-8.251,0.661c2.929-2.268,6.781-3.932,10.531-3.1
		c3.134,1.869,4.98,5.14,7.442,7.75c-2.029-7.283-3.043-15.169-7.613-21.426c-16.063-21.74-17.868-14.263-31.501-18.52
		c-1.835-0.684-1.983-3.761,0.194-4c5.049-1.368,10.394-1.231,15.374-2.929C456.009,551.999,446.778,546.78,437.113,548.455z"/>
	<path fill="#171717" d="M209.486,556.843c1.561-0.547,2.108-0.011,1.652,1.607C209.543,558.951,208.996,558.416,209.486,556.843z"
		/>
	<path fill="#171717" d="M694.064,560.912c2.063,1.937,4.319,4.251,4,7.351c-0.954,16.312-0.292,16.93-10.656,30.008
		c3.316,0.171,6.644,0.558,9.984,0.422c1.994-1.516,2.712-4.753,5.755-4.502c-0.764,21.93-9.302,29.224-26.668,38.92
		c0.843-2.245,3.134-3.248,4.912-4.616c14.166-10.35,14.881-15.169,18.132-27.09c-5.801,0.57-11.727-0.855-17.289,1.356
		c-0.034-0.593-0.103-1.766-0.125-2.359c4.171-6.405,10.531-11.739,12.001-19.602C695.5,574.337,698.031,566.963,694.064,560.912z"
		/>
	<path fill="#171717" d="M208.426,573.061c1.88-0.593,2.69,2.553,0.821,3.009C207.184,576.765,206.101,573.368,208.426,573.061z"/>
	<path fill="#171717" d="M201.907,580.981c1.789-0.866,3.066,2.188,1.003,2.655C201.189,584.321,200.084,581.517,201.907,580.981z"
		/>
	<path fill="#171717" d="M188.345,589.552c-1.516-1.459,0.866-3.693,2.279-2.257C192.003,588.663,189.678,591.284,188.345,589.552z"
		/>
	<path fill="#171717" d="M217.122,588.48c1.06-0.046,2.131-0.068,3.202-0.068c0.388,2.428-0.672,3.636-3.145,3.248
		C217.145,590.589,217.133,589.529,217.122,588.48z"/>
	<path fill="#171717" d="M182.339,589.016c1.858-0.536,2.45,0.125,1.778,1.96C182.248,591.501,181.644,590.84,182.339,589.016z"/>
	<path fill="#171717" d="M613.102,597.039c5.801-2.074,11.465-4.502,17.266-6.587c-4.638,3.214-10.246,4.593-15.18,7.283
		c-4.376,2.678-9.63,1.242-14.371,2.53c1.653,2.45,3.59,4.73,5.094,7.305c-5.63-0.239-11.249-0.786-16.879-0.365
		c-1.117,2.849,0.08,6.872-2.69,8.832c-4.49,0.661-8.753-1.687-13.175-2.108c1.527,5.539,5.664,10.371,5.63,16.274
		c-6.556-4.563-3.454-6.855-22.691-6.223c-11.666,6.212-9.12,6.326-27.648,5.778c1.105,3.544,4.057,7.066,2.69,10.93
		c-2.644-1.482-4.832-3.579-7.134-5.482c-2.633-1.983-6.109-1.573-9.174-2.006c-4.684-0.992-8.582-4.319-13.414-4.673
		c1.356,4.183,2.655,8.434,4.661,12.377c-0.376,0.878-0.741,1.766-1.128,2.655c-1.288-5.311-4.581-10.132-4.809-15.659
		c0.638-0.274,1.915-0.809,2.553-1.083c4.331,1.288,8.251,3.636,12.593,4.889c2.61,0.741,5.573-0.182,8.012,1.265
		c2.541,1.265,4.399,3.487,6.667,5.163c-0.832-3.362-2.53-6.405-3.761-9.607c8.723-2.394,10.523,5.051,29.859-6.451
		c5.368-0.125,10.713,0.604,16.058,0.98c1.539,1.105,3.054,2.257,4.604,3.385c-1.607-4.547-4.787-8.684-4.901-13.631
		c5.106-1.242,9.995,2.952,14.896,1.128c-0.103-2.712-0.137-5.459,1.242-7.875c4.935-1.185,9.984-0.376,14.975-0.068
		c-1.447-1.915-2.815-3.864-4.103-5.881C602.776,596.264,608.566,599.193,613.102,597.039z"/>
	<path fill="#171717" d="M212.871,594.623C216.677,594.828,211.025,597.951,212.871,594.623z"/>
	<path fill="#171717" d="M190.339,600.766c0.661,0,1.994,0.011,2.667,0.011c0.057,0.729,0.194,2.165,0.262,2.883
		c-0.786,0.171-1.573,0.33-2.359,0.467C190.681,603,190.488,601.883,190.339,600.766z"/>
	<path fill="#171717" d="M168.606,607.638c1.596-0.444,2.097,0.114,1.516,1.675C168.481,609.747,167.979,609.188,168.606,607.638z"
		/>
	<path fill="#171717" d="M253.398,608.049C256.794,606.305,253.534,611.844,253.398,608.049z"/>
	<path fill="#171717" d="M223.31,613.109c1.607-0.536,2.143-0.011,1.618,1.55C223.287,615.172,222.752,614.659,223.31,613.109z"/>
	<path fill="#171717" d="M185.906,615.4c1.265-0.615,2.576-1.128,3.909-1.607c-0.034,0.9-0.103,2.678-0.137,3.567
		C188.334,616.858,186.886,616.494,185.906,615.4z"/>
	<path fill="#171717" d="M202.044,614.522c1.208-0.114,2.416-0.216,3.647-0.296c-0.034,0.638-0.091,1.903-0.125,2.541
		c-0.661,0.057-1.994,0.148-2.655,0.205C202.614,616.14,202.317,615.331,202.044,614.522z"/>
	<path fill="#171717" d="M462.824,613.656c-0.137,0.524-0.388,1.561-0.524,2.086c-43.575,40.874-48.69,43.947-113.876,28.822
		c-1.755-0.593-4.034-0.718-4.969-2.564c17.3,2.348,34.327,7.932,51.981,7.169C431.061,645.422,431.496,637.926,462.824,613.656z"/>
	<path fill="#171717" d="M181.245,616.004c1.892-0.581,2.564,0.034,2.04,1.858C181.404,618.385,180.732,617.77,181.245,616.004z"/>
	<path fill="#171717" d="M155.044,626.956C158.827,627.343,153.072,630.215,155.044,626.956z"/>
	<path fill="#171717" d="M141.06,628.654C144.866,628.631,139.407,632.096,141.06,628.654z"/>
	<path fill="#171717" d="M487.27,629.566c5.209-1.753,14.63,10.778,17.391,14.234c0.729,1.026,1.755-0.513,2.53-0.775
		c-0.068,1.117-0.205,3.339-0.273,4.456c-6.371-4.809-10.041-12.491-17.164-16.503c6.693,11.073-2.047,26.646-6.599,25.141
		c-2.293-18.547,3.05-11.393-10.61-23.477c1.595,6.678,4.023,14.109,1.083,20.788c-0.479,1.39-1.413,1.892-2.815,1.504
		c-1.71-3.02-2.074-6.963-5.163-9.026c-1.812-1.721-4.502-1.265-6.747-1.641c2.804,4.456,4.376,10.519,1.14,15.192
		c-3.151,2.281-1.073-4.144-8.787-8.901c-6.827,4.126-9.106,13.767-17.084,16.149c-0.558-1.573-1.094-3.146-1.561-4.718
		c-2.963-2.108-6.405-3.59-10.063-3.807c0.034,2.929,0.171,5.858,0.148,8.81c-2.097-0.946-2.918-3.123-3.989-4.946
		c-1.744-0.387-3.499-0.615-5.265-0.558c-0.217,2.131,0.661,4.832-1.402,6.291c-2.906-2.53-5.47-7.157-10.006-5.881
		c-5.402,2.006-4.012,9.174-7.453,12.924c-3.852-1.573-5.584-6.291-9.083-8.616c-0.718,6.485-6.519,10.736-12.126,13.049
		c0.091-2.45,0.843-4.798,1.174-7.203c-1.162-1.858-2.804-3.328-4.262-4.912c-0.615,2.393-2.006,4.411-3.681,6.188
		c-4.137,1.687-4.752-3.396-4.616-6.325c-2.074,2.382-2.861,5.573-5.026,7.887c-1.493-3.727-1.573-8.274-4.342-11.283
		c0.969,0.046,1.949,0.103,2.952,0.16c0.376,2.53,1.117,4.992,1.858,7.453c1.288-2.257,2.576-4.513,4.171-6.576
		c2.177,1.983,2.04,5.117,2.872,7.75c1.174-0.912,2.348-1.823,3.51-2.735c0.08-2.416,0.046-4.832,0.16-7.214
		c2.929,2.644,5.299,5.915,7.807,8.969c1.675,1.732-1.527,3.818-0.912,5.664c2.758-1.835,5.243-4.046,7.533-6.428
		c0.467-1.892,1.026-3.75,1.607-5.596c4.627,0.034,7.237,4.878,9.63,8.217c2.598-4.251,2.108-12.001,8.331-12.799
		c4.114-1.128,7.134,2.063,9.585,4.821c-0.884-6.511,4.107-7.576,9.368-2.861c-4.447-8.949,12.103-6.445,14.588,2.735
		c8.528-7.98,12.896-18.284,17.277-15.477c3.396,1.573,4.559,5.322,6.804,8c1.63-5.072-0.467-9.858-2.997-14.166
		c3.544-1.618,7.966-0.923,10.736,1.88c2.655,2.006,2.712,5.687,4.935,8.046c2.165-8.126-0.33-16.275-2.359-24.07
		c4.308,2.268,7.841,5.721,11.363,9.038c4.581,4.297,2.2,11.169,2.872,16.685c4.559-4.046,6.074-10.303,6.519-16.126
		C490.45,635.583,488.558,632.643,487.27,629.566z"/>
	<path fill="#171717" d="M138.404,633.543C141.812,631.822,138.484,637.338,138.404,633.543z"/>
	<path fill="#171717" d="M218.717,633.577C222.034,631.731,219.002,637.361,218.717,633.577z"/>
	<path fill="#171717" d="M143.362,634.079C147.157,633.999,141.789,637.566,143.362,634.079z"/>
	<path fill="#171717" d="M266.96,640.586C267.712,641.293,267.712,641.293,266.96,640.586z"/>
	<path fill="#171717" d="M180.949,642.501c1.539-0.559,2.086-0.034,1.664,1.595C181.028,644.632,180.481,644.096,180.949,642.501z"
		/>
	<path fill="#171717" d="M653.88,649.419c1.208-6.576,9.095-5.63,14.121-6.838c-2.975,2.165-6.815,2.918-9.551,5.402
		c-1.094,1.903-1.219,5.573-4.285,5.026c-15.117-2.864-10.661-6.852-30.395,1.071c0.501,1.664,1.744,3.442,0.855,5.22
		c-0.433,2.063-3.066,2.086-4.707,2.188c-10.599,0.023-21.209-0.262-31.763-1.276c1.299,3.294,2.918,6.439,4.297,9.71
		c-1.972,3.145-5.254,1.174-8.035,0.627c-4.513-0.843-9.129-0.445-13.665-0.992c-3.396-0.456-6.166-2.655-9.152-4.126
		c-3.533,3.066-6.12,8.251-11.34,8.468c-7.374-1.402-13.414-6.291-20.184-9.254c-0.148,3.202,3.556,8.753-1.026,10.018
		c0.103-0.889,0.308-2.678,0.41-3.567c-10.633-20.751,12.376-2.896,20.822-0.718c4.935-0.843,6.245-7.545,11.363-8.16
		c3.795,0.102,6.394,3.738,10.189,3.955c5.277,0.342,10.633,0.125,15.819,1.413c-1.333-2.952-4.513-6.849-1.698-9.835
		c4.176-2.544,6.556,0.779,35.991,0.182c-1.573-1.265-4.878-1.356-4.468-3.943c4.935-3.806,11.066-5.789,17.015-7.431
		C641.081,644.735,647.611,647.664,653.88,649.419z"/>
	<path fill="#171717" d="M243.608,643.994C247.449,644.176,241.83,647.333,243.608,643.994z"/>
	<path fill="#171717" d="M143.487,650.878C147.26,651.333,141.516,654.126,143.487,650.878z"/>
	<path fill="#171717" d="M163.956,655.55c1.584-0.501,2.108,0.046,1.561,1.63C163.922,657.681,163.398,657.134,163.956,655.55z"/>
	<path fill="#171717" d="M350.783,654.331c2.576,1.938,2.838,5.379,4.103,8.115c-1.094,0.331-1.949-0.239-2.576-1.06
		c-0.091,1.413-0.365,3.807-2.382,3.202c-4.16-0.33-5.755-4.559-7.807-7.51c-0.832,2.063-2.257,4.399-0.923,6.599
		c-0.501,0.046-1.482,0.148-1.983,0.205c-1.174,2.644-2.428,5.334-4.433,7.488c-0.456-0.217-1.345-0.638-1.789-0.855
		c-0.718-3.237-0.319-6.587-0.342-9.87h-0.661c-2.363,8.046-13.422,18.303-17.562,18.577c0.798-1.858,1.698-3.67,2.462-5.527
		c-3.727,0.228-7.089,2.006-10.702,2.769c3.852-1.937,8.103-4.525,12.502-4.148c-0.228,0.992-0.672,2.963-0.889,3.943
		c4.012-3.864,8.753-7.339,11.135-12.536c1.242-2.154,1.846-5.299,4.741-5.755c0.9,3.727,0.672,7.567,0.718,11.385
		c3.077-3.818,4.217-8.673,6.542-12.867c3.146-1.755,4.422,3.18,5.801,5.151c1.333,0.593,2.69,1.128,4.091,1.618
		C350.828,660.268,350.692,657.294,350.783,654.331z"/>
	<path fill="#171717" d="M271.006,663.961c1.858-0.718,2.462-0.125,1.801,1.766C270.903,666.4,270.31,665.807,271.006,663.961z"/>
	<path fill="#171717" d="M252.828,667.882C256.714,668.018,251.107,671.301,252.828,667.882z"/>
	<path fill="#171717" d="M519.592,667.676c3.727-0.034,6.576,2.564,9.573,4.388c-0.501,0.684-0.992,1.379-1.47,2.086
		c-6.057-4.08-17.626-4.046-24.138-1.231c-0.558,3.738,1.88,9.38-2.359,11.522c-3.408-0.399-4.969-4.08-7.556-5.881
		c-4.046-2.644-8.696-4.16-13.209-5.778c0.205-0.399,0.627-1.185,0.832-1.584c6.713,1.721,14.679,2.564,18.85,8.867
		C500.934,671.977,495.696,667.104,519.592,667.676z"/>
	<path fill="#171717" d="M95.849,707.519C96.51,708.18,96.51,708.18,95.849,707.519z"/>
	<path fill="#171717" d="M249.887,729.31c0.593-0.843,1.197-1.675,1.812-2.484c-0.08,8.661,1.162,17.323,0.33,25.996
		c-0.353,15.784-3.955,31.25-5.22,46.955c-2.649,22.217-0.673,40.597-12.058,66.158c1.311-5.824,3.727-11.328,5.22-17.107
		c4.057-13.118,3.282-27.01,4.638-40.527c0.638-20.845,6.451-41.268,5.949-62.181C250.469,740.513,250.879,734.86,249.887,729.31z"
		/>
	<path fill="#171717" d="M1007.019,785.861c4.274-0.296,8.468,0.855,12.65,1.607c-1.026,1.858-3.693,0.889-5.448,1.254
		c7.75,0.82,13.095,6.884,18.622,11.704c7.237,6.792,15.534,12.753,20.902,21.255c1.732,2.12,1.185,6.097-2.086,6.154
		c-4.468-0.125-8.525-2.234-12.844-3.089c8.528,5.227,15.137,0.036,40.618,23.284l0.832,1.459
		c-4.935-0.444-9.744-1.618-14.588-2.496c8.764,5.448,18.862,9.835,24.754,18.77c2.781,4.297,6.644,7.966,8.65,12.719
		c-2.986-0.08-4.798-1.755-4.707-4.753c-2.918-1.197-4.73-3.955-6.975-6.006c-15.007-15.911-53.456-30.538-17.631-24.024
		c-10.679-6.302-21.665-12.046-32.583-17.893c0.034-0.752,0.114-2.245,0.148-2.997c3.841,0.661,7.761,0.672,11.659,0.65
		c-5.51-7.635-26.036-25.666-33.734-30.737c-2.997-1.994-6.462-3.282-9.083-5.778L1007.019,785.861z"/>
	<path fill="#171717" d="M368.402,815.526c5.057,25.917-3.415,26.703-14.907,34.589c-2.393,1.789-6.473,3.111-6.394,6.667
		c3.92,2.006,8.502,1.368,12.764,1.618c-4.422,0.228-8.924,0.194-13.186-1.083c-0.103-1.174,0.057-2.302,0.479-3.396
		C361.014,839.776,367.902,846.186,368.402,815.526z"/>
	<path fill="#171717" d="M366.659,862.367c-11.885,13.501-46.631,22.778-43.034,101.089c2.2-2.313,3.544-5.231,5.493-7.716
		c-1.219,3.237-2.929,6.291-4.946,9.117c-0.331-0.103-0.98-0.319-1.311-0.422c-2.314-10.303-1.516-20.97-1.607-31.444
		C324.979,880.194,348.047,877.951,366.659,862.367z"/>
	<path fill="#171717" d="M982.482,878.528c38.994,20.842,54.903,44.635,45.427,46.784c-6.006-0.878-11.26-4.342-17.107-5.847
		c31.844,12.903,34.702,43.802,46.955,60.061c3.567,5.242,5.858,11.328,7.146,17.528c-0.011,2.325-2.929,2.804-3.841,0.798
		c-3.624-4.753-9.061-7.362-14.143-10.143c4.901,0.615,9.79,2.211,13.824,5.163c-1.527-4.445-3.351-8.844-6.166-12.628
		c-12.558-16.559-12.638-45.239-50.1-61.337c-1.994-1.049-4.422-1.573-5.847-3.396c16.843,0.111,20.863,5.05,29.369,6.815
		C1025.42,907.17,994.258,886.438,982.482,878.528z"/>
	<path fill="#171717" d="M331.978,962.453c-1.972,13.254-1.311,26.691,0.194,39.968c5.742,64.073,42.546,16.564,39.182,161.8
		c-3.327-76.663-4.733-90.109-19.625-109.158C345.717,1046.792,316.804,1022.337,331.978,962.453z"/>
	<path fill="#171717" d="M1046.099,989.646c16.77,10.266,28.257,42.515,22.121,59.297c-3.046,0.609-5.617-9.759-9.767-15.26
		c6.359,39.682,8.892,43.306,5.186,45.724c-2.941-3.417-12.399-23.535-12.81-24.537c5.037,6.872,7.784,15.123,12.833,21.996
		c-1.907-23.155-8.566-41.622-5.653-46.419c4.445,5.345,4.935,13.186,10.041,17.927
		C1069.141,1031.165,1064.617,1012.669,1046.099,989.646z"/>
	<path fill="#171717" d="M1047.193,1077.72c0.353-7.636-0.992-15.374,0.501-22.919c-1.074,27.884,7.031,24.451-2.028,62.842
		C1046.896,1104.377,1047.671,1091.054,1047.193,1077.72z"/>
	<path fill="#171717" d="M448.909,1056.135c-6.052,7.67-13.175,14.645-17.893,23.341c-8.719,14.725-7.887,32.39-11.534,48.596
		c-1.299,5.881-8.342,5.721-13.072,5.562c2.815,4.365,7.408,8.092,7.784,13.608c-1.185,6.154-8.491,7.055-13.3,9.186
		c1.208,0.695,2.371,1.482,3.499,2.37c1.587,4.743-3.617,9.599-13.266,25.426c2.439,1.39,6.462,2.724,5.812,6.314
		c-1.949,6.918-6.485,12.753-9.072,19.443c3.191,0.809,8.719,0.114,9.174,4.638c-0.627,3.795-4.49,5.573-6.861,8.206
		c-2.986,2.553-3.807,6.542-4.832,10.154c-10.608,40.009-8.559,52.862,2.883,83.003c-6.177-11.044-11.477-22.805-14.303-35.182
		c-2.094-18.169,6.306-51.307,9.596-57.633c1.732-3.031,4.49-5.265,7.089-7.522c-14.681-1.432-5.636-9.929,1.402-25.187
		c-2.735-1.333-6.941-2.929-5.938-6.781c3.476-8.057,9.813-14.519,13.38-22.554c-3.157-0.319-6.633,0.046-9.425-1.732
		c-6.017-6.016,10.838-6.567,19.374-12.206c-1.721-4.536-5.641-7.693-7.727-11.989c-1.425-2.325,0.217-5.584,2.769-6.131
		c3.271-0.593,6.621-0.467,9.892-1.14C421.996,1095.455,411.682,1087.117,448.909,1056.135z"/>
	<path fill="#171717" d="M1071.228,1188.234c12.768,24.462,29.328,74.958,28.23,82c-3.157,2.405-5.254-2.496-7.328-4.194
		c6.679,15.275-12.548,24.75-1.026,54.043c1.048,3.51,3.408,6.884,2.883,10.702c-0.57,0.091-1.709,0.285-2.279,0.387
		c-5.448-5.767-6.964-14.292-11.91-20.423c2.442,9.369,7.391,8.691,8.787,47.308c-0.091,3.168,0.251,7.1-2.701,9.174
		c-5.578,0.933-8.32-8.637-17.642-14.725c9.382,21.448,7.658,60.459,1.823,62.26c-9.292-3.887-5.529-29.044-28.674-35.41
		c12.218,19.661,22.646,26.089,7.795,68.814c-0.775,0.034-2.314,0.091-3.077,0.114c-1.174-3.26-0.935-7.727-4.49-9.437
		c-3.522-1.675-7.704-4.479-11.545-2.279c4.262,9.961,1.538,20.811,0.536,31.136c-2.273,14.43-4.254,37.305-14.326,30.999
		c-7.636-4.468-12.844-11.887-19.477-17.562c0.536,6.884,3.1,13.642,1.903,20.628c-1.026,6.815-0.934,13.767-2.416,20.526
		c0.262-11.796,2.918-24.013-1.128-35.444c-0.672-2.952-2.621-7.089,0.843-9.015c5.074,0.206,13.159,14.496,24.07,19.272
		c6.091-8.036,8.992-40.105,9.357-50.077c0.148-4.171-3.077-8.24-1.539-12.274c4.553-4.94,18.367,0.168,20.013,7.909
		c10.036-32.313,5.665-38.983-4.468-54.647c-2.108-3.453-5.231-6.496-5.744-10.656c4.832-2.416,10.018,0.957,14.212,3.317
		c10.439,6.861,11.898,20.184,17.779,30.292c1.948-7.671,4.716-38.261-4.718-58.078c-2.336-4.946-8.377-5.516-12.308-8.616
		c0.365-0.513,1.094-1.527,1.459-2.029c5.493,1.447,10.212,4.821,15.158,7.533c6.337,3.419,10.143,9.744,15.192,14.645
		c2.861-6.155,0.349-30.059-4.912-47.866c-0.772-2.621-6.601-18.853-6.941-19.853c2.571,1.325,11.83,19.026,15.431,23.922
		c-2.496-7.761-5.767-15.967-3.624-24.229c1.527-8.821,6.439-17.015,6.04-26.121c-0.992-8.89-7.545-15.534-11.625-23.044
		c6.678,5.801,11.237,13.767,17.824,19.785C1089.495,1228.425,1071.616,1189.236,1071.228,1188.234z"/>
	<path fill="#171717" d="M599.756,1263.567c0.774,2.124,15.143,41.893,13.232,46.795c-4.548,1.019-8.503-9.272-13.517-15.146
		c7.253,18.783,3.87,27.273-1.47,33.142c-2.405-0.068-1.869-2.918-2.131-4.468c-0.078-3.924-4.01-12.377-15.009-7.909
		c0.581,8.103,4.183,15.716,4.194,23.887c0.103,2.017-2.074,4.251-4.103,3.191c-4.958-1.653-8.593-5.846-13.608-7.408
		c0.741,8.035,3.43,15.727,4.365,23.739c-2.76,8.418-18.866-19.952-22.087-18.189c-3.43,9.995-4.821,20.571-8.263,30.566
		c-0.41,2.371-3.556,3.396-4.581,0.832c-2.12-4.969-2.336-10.485-4.023-15.591c-4.342,0.684-7.488,5.573-8.103,9.824
		c-0.976,7.117-13.514,21.339-16.502,23.17c-2.621,0.638-1.664-3.146-1.231-4.525c2.2-5.755-0.422-11.75-2.895-16.936
		c-5.619,2.883-7.077,9.984-10.337,15.009c-10.402,16.903-14.36,2.458-22.885-2.838c-2.838,3.305-3.704,7.75-6.291,11.192
		c-4.554,4.581-9.311-10.068-7.385-16.708c-3.841-0.148-9.015,1.322-11.522-2.507c-2.04-5.049-1.653-10.656-2.348-15.955
		c-1.732,1.801-2.861,5.824-5.915,5.197c-0.615-10.314,2.006-20.548,1.368-30.885c-5.352,7.643-13.194,29.976-16.901,20.001
		c-1.516-5.767-0.832-11.853-1.994-17.619c-2.462-2.462-7.545-0.98-8.855-4.935c-5.718-17.564-3.628-33.689,13.847-54.716
		c-5.661,10.201-20.247,31.275-10.702,54.192c2.769,1.345,6.758,0.946,8.422,4.057c1.721,5.824,0.832,12.024,1.926,17.973
		c7.284-9.684,9.413-22.842,16.366-22.691c1.023,3.598,1.877,4.512-1.71,30.748c10.133-14.132,5.777,3.947,9.186,13.209
		c3.305,2.507,7.773-0.217,11.328,1.276c2.598,1.823-0.969,4.923,0.034,7.385c0.672,3.248,1.049,6.838,3.237,9.493
		c1.527-3.362,2.519-7.112,5.06-9.892c4.858-5.767,10.304,5.973,17.266,9.516c8.069-5.904,8.456-17.825,17.027-23.227
		c4.722-3.405,10.248,11.702,7.545,19.432c4.559-6.451,11.009-12.263,12.194-20.446c1.407-7.309,11.543-14.985,13.437-8.912
		c1.755,4.376,2.131,9.129,3.271,13.688c5.165-13.142,6.584-38.633,13.927-30.885c6.211,6.052,10.975,13.403,16.81,19.796
		c-1.515-8.058-9.074-28.682-0.923-25.631c5.094,1.459,8.787,5.733,13.767,7.522c-1.283-17.888-9.881-25.612,1.037-28.617
		c7.545-2.359,15.545,4.57,15.454,12.217c3.806-10.155,0.513-21.107-3.225-30.749c-0.627-2.291-2.154-4.729-1.094-7.066
		c3.655-1.73,5.33,4.949,15.819,19.306C607.54,1291.318,603.369,1277.505,599.756,1263.567z"/>
	<path fill="#171717" d="M472.819,1386.834c1.003,0.479,2.063,1.037,3.077,1.618c-0.581-0.137-1.732-0.399-2.314-0.536
		c-2.507,6.473-4.251,13.482-2.804,20.434c2.325,11.99,5.277,23.945,9.516,35.41c0.843-8.354,1.584-16.708,2.849-24.993
		c0.593-0.445,1.789-1.333,2.382-1.778c3.852,2.04,2.553,6.838,3.328,10.394c13.676,3.499,15.509-0.404,18.634,20.742
		c3.214-5.69,4.536-15.576,16.776-3.681c5.858,6.337,12.958,11.328,19.386,17.061c35.476,28.389,37.359,9.057,61.497,14.736
		c13.543,3.276,43.472,14.315,45.895,16.32c-15.955-4.559-31.911-9.562-48.413-11.693c-12.183-2.051-24.492,4.137-36.527,0.182
		c-19.767-6.233-45.127-33.762-50.716-37.575c-2.165,3.51-2.986,7.681-5.231,11.157c-1.425,2.052-4.525,1.926-5.71-0.273
		c-3.02-5.881-1.755-13.255-5.243-18.93c-3.487-2.838-8.548-1.846-12.582-3.533c-0.957,6.348-1.026,12.935-2.997,19.078
		c-1.39,3.453-5.858,1.732-6.576-1.242c-5.47-13.152-7.807-27.352-9.835-41.37C465.958,1400.693,469.526,1393.49,472.819,1386.834z"
		/>
	<path fill="#171717" d="M396.963,1458.918c1.356-1.39,4.513,1.356,2.257,2.211c-7.727,3.225-17.471,4.057-22.531,11.613
		c-2.838,3.921-0.741,8.684,0.125,12.901c1.185,4.57-0.137,9.266,0.239,13.915c0.433,4.319,2.918,8.103,3.75,12.343l-0.593,0.946
		c-0.422,0-1.265,0-1.687,0c-2.918-5.892-5.619-12.536-4.376-19.226C376.775,1481.641,359.024,1470.32,396.963,1458.918z"/>
	<path fill="#171717" d="M423.847,1467.386c4.775,7.852,10.12,15.374,15.99,22.452c0.775-2.45,0.536-5.448,2.507-7.339
		c2.975-1.333,4.889,1.766,4.958,4.365c1.388,20.181,23.78,35.973,25.608,38.213c-2.129-1.525-24.613-15.825-29.233-30.087
		c-4.084,1.446-4.005,2.84-9.311-5.208C430.07,1482.726,425.774,1475.501,423.847,1467.386z"/>
</g>
</svg>
